<svg id="Layer_009_Image" data-name="Layer 009 Image" xmlns="http://www.w3.org/2000/svg" viewBox="0 0 544.9 655.52"><defs><style>.cls-1{fill:none;stroke:#74adc2;stroke-linecap:round;stroke-linejoin:round;stroke-width:17px;}</style></defs><path id="palmduim" class="cls-1" d="M558.35,565.46C535.25,603.23,494,640.33,441,668.18,338.14,722.19,229.77,721,197.74,660S227.2,507.14,330.06,453.12c74.37-39.05,150-47.64,198.29-26.36L560,247.92" transform="translate(-30.72 -60.26)"/><line id="wijsvinger" class="cls-1" x1="328.94" y1="10.63" x2="376.3" y2="285.01"/><line id="middelvinger" class="cls-1" x1="153.26" y1="8.5" x2="280.57" y2="318.62"/><line id="ringvinger" class="cls-1" x1="43.6" y1="165.06" x2="200.04" y2="369.98"/><line id="pink" class="cls-1" x1="8.5" y1="343.92" x2="128.48" y2="460.7"/><polyline class="cls-1" points="332 482.09 390.53 431.81 415.67 410.21"/><path class="cls-1" d="M557.05,567.8c7.44-13.75,10.52-25.32,10-30.55a17.51,17.51,0,0,0-3.32-9.1,24.15,24.15,0,0,0-1.93-1.85c-11.69-9.85-29.41-1.42-61.61-1.36a157.44,157.44,0,0,1-19.94-1.13c-12.21-1.54-25.7-3.23-39-11.71a67.54,67.54,0,0,1-20.06-20" transform="translate(-30.72 -60.26)"/><path class="cls-1" d="M380.82,526.8a166,166,0,0,1,25.32,15c8.67,6.12,17,11.11,19,20.25,3.22,14.9,2.4,21.66,1.6,56-.3,12.62-1.16,20,4,26.45a21.5,21.5,0,0,0,5.69,5c14.86,9.18,38.43-2.48,41.46-4" transform="translate(-30.72 -60.26)"/></svg>